# xmcd
#
# Track frame offsets:
#	183
#	16190
#	31130
#	45005
#	57445
#	71318
#	84008
#	98988
#	108008
#	119543
#	128508
#	139578
#	149843
#	169308
#	188820
#	198855
#	210593
#	223933
#
# Disc length: 3124 seconds
#
# Revision: 1
# Processed by: cddbd v1.5.1PL2 Copyright (c) Steve Scherf et al.
# Submitted via: EasyCDDAExtractor 6.0.0.1
#
DISCID=f30c3212
DTITLE=Flying Burrito Brothers - Country Music CM015
DYEAR=1999
DGENRE=Country
TTITLE0=Midnight Magic Woman
TTITLE1=Tell Me It Ain't So
TTITLE2=Too Much Honky Tonking
TTITLE3=Why Must The Ending Always Be So Sad
TTITLE4=Another Shade Of Grey
TTITLE5=Run To The Night
TTITLE6=Coast To Coast
TTITLE7=You
TTITLE8=My Abandoned Heart
TTITLE9=I Swear I Don't Miss Her Anymore
TTITLE10=That's When You Know It's Over
TTITLE11=Baby, How'd We Ever Get This Way
TTITLE12=Louisiana
TTITLE13=Damned If I'll Be Lonely Tonight
TTITLE14=True Love Never Runs Dry
TTITLE15=She's A Hell Of A Deal
TTITLE16=Closer To You # 40 ('82)
TTITLE17=Cheating Kind Of Love
EXTD=
EXTT0=
EXTT1=
EXTT2=
EXTT3=
EXTT4=
EXTT5=
EXTT6=
EXTT7=
EXTT8=
EXTT9=
EXTT10=
EXTT11=
EXTT12=
EXTT13=
EXTT14=
EXTT15=
EXTT16=
EXTT17=
PLAYORDER=
